<svg width="20" height="17" viewBox="0 0 20 17" fill="none" xmlns="http://www.w3.org/2000/svg">
<path d="M18 0.369141H2C0.9 0.369141 0.00999999 1.26914 0.00999999 2.36914L0 14.3691C0 15.4691 0.9 16.3691 2 16.3691H18C19.1 16.3691 20 15.4691 20 14.3691V2.36914C20 1.26914 19.1 0.369141 18 0.369141ZM17.6 4.61914L10.53 9.03914C10.21 9.23914 9.79 9.23914 9.47 9.03914L2.4 4.61914C2.29973 4.56285 2.21192 4.4868 2.14189 4.39559C2.07186 4.30439 2.02106 4.19992 1.99258 4.08851C1.96409 3.9771 1.9585 3.86108 1.97616 3.74745C1.99381 3.63382 2.03434 3.52495 2.09528 3.42744C2.15623 3.32993 2.23632 3.2458 2.33073 3.18014C2.42513 3.11448 2.53187 3.06865 2.6445 3.04544C2.75712 3.02223 2.87328 3.02211 2.98595 3.04509C3.09863 3.06807 3.20546 3.11367 3.3 3.17914L10 7.36914L16.7 3.17914C16.7945 3.11367 16.9014 3.06807 17.014 3.04509C17.1267 3.02211 17.2429 3.02223 17.3555 3.04544C17.4681 3.06865 17.5749 3.11448 17.6693 3.18014C17.7637 3.2458 17.8438 3.32993 17.9047 3.42744C17.9657 3.52495 18.0062 3.63382 18.0238 3.74745C18.0415 3.86108 18.0359 3.9771 18.0074 4.08851C17.9789 4.19992 17.9281 4.30439 17.8581 4.39559C17.7881 4.4868 17.7003 4.56285 17.6 4.61914Z" fill="url(#paint0_linear_88648_1478)"/>
<defs>
<linearGradient id="paint0_linear_88648_1478" x1="2.28165" y1="-4.8917" x2="52.528" y2="49.467" gradientUnits="userSpaceOnUse">
<stop stop-color="#A854E9"/>
<stop offset="1" stop-color="#4F91FC"/>
</linearGradient>
</defs>
</svg>
