<svg width="44" height="43" viewBox="0 0 44 43" fill="none" xmlns="http://www.w3.org/2000/svg">
<path d="M21.6809 0.150377C21.4546 0.225801 1.66854 13.3746 1.33333 13.6847C0.95621 14.0199 0.788602 14.4641 0.830504 15.0339C0.864026 15.6289 1.08192 16.0144 1.54284 16.3329C1.84453 16.5424 2.55686 16.6514 2.95074 16.5508C3.06807 16.5173 7.45939 13.6344 12.7139 10.1314L22.2675 3.76232L31.8212 10.1314C37.0757 13.6344 41.467 16.5173 41.5843 16.5508C42.0117 16.6597 42.6905 16.5424 43.0341 16.3078C43.8721 15.7211 43.956 14.3635 43.2017 13.6847C42.9335 13.4333 23.2061 0.301224 22.9128 0.175518C22.653 0.0665741 22.0077 0.0498123 21.6809 0.150377Z" fill="url(#paint0_linear_88648_1184)"/>
<path d="M12.3381 13.6427L2.44922 19.8274V29.3727V38.918L2.64197 39.5046C3.15317 41.0298 4.13368 42.0774 5.63376 42.6975L6.22039 42.9405L22.0174 42.9657C33.222 42.9824 37.9401 42.9573 38.2586 42.8903C39.0212 42.731 40.0101 42.1779 40.6302 41.5662C41.2504 40.9376 41.6107 40.3594 41.8957 39.5046L42.0884 38.918V29.3727V19.8274L32.1744 13.6343C26.7188 10.2319 22.2521 7.44962 22.2437 7.45799C22.2353 7.45799 17.7769 10.2403 12.3381 13.6427ZM25.5372 21.5706V24.8808H28.8474H32.1577V28.1492V31.4175H28.8474H25.5372V34.6859V37.9542H22.2688H19.0005V34.6859V31.4175H15.6902H12.38V28.1492V24.8808H15.6902H19.0005V21.5706V18.2603H22.2688H25.5372V21.5706Z" fill="url(#paint1_linear_88648_1184)"/>
<defs>
<linearGradient id="paint0_linear_88648_1184" x1="5.71773" y1="22.0197" x2="44.3312" y2="-64.8154" gradientUnits="userSpaceOnUse">
<stop stop-color="#A854E9"/>
<stop offset="1" stop-color="#4F91FC"/>
</linearGradient>
<linearGradient id="paint1_linear_88648_1184" x1="6.97136" y1="54.6474" x2="118.774" y2="-53.3584" gradientUnits="userSpaceOnUse">
<stop stop-color="#A854E9"/>
<stop offset="1" stop-color="#4F91FC"/>
</linearGradient>
</defs>
</svg>
