<svg width="18" height="19" viewBox="0 0 18 19" fill="none" xmlns="http://www.w3.org/2000/svg">
<path d="M17.01 12.7491C15.78 12.7491 14.59 12.5491 13.48 12.1891C13.3061 12.1302 13.1191 12.1214 12.9405 12.1639C12.7618 12.2063 12.5988 12.2983 12.47 12.4291L10.9 14.3991C8.07 13.0491 5.42 10.4991 4.01 7.56914L5.96 5.90914C6.23 5.62914 6.31 5.23914 6.2 4.88914C5.83 3.77914 5.64 2.58914 5.64 1.35914C5.64 0.819141 5.19 0.369141 4.65 0.369141H1.19C0.65 0.369141 0 0.609141 0 1.35914C0 10.6491 7.73 18.3691 17.01 18.3691C17.72 18.3691 18 17.7391 18 17.1891V13.7391C18 13.1991 17.55 12.7491 17.01 12.7491Z" fill="url(#paint0_linear_88648_1474)"/>
<defs>
<linearGradient id="paint0_linear_88648_1474" x1="2.05349" y1="-5.5493" x2="58.1689" y2="43.0172" gradientUnits="userSpaceOnUse">
<stop stop-color="#A854E9"/>
<stop offset="1" stop-color="#4F91FC"/>
</linearGradient>
</defs>
</svg>
