<svg width="44" height="44" viewBox="0 0 44 44" fill="none" xmlns="http://www.w3.org/2000/svg">
<path d="M17.6157 19.9968C17.4252 20.2922 17.1121 20.4918 16.7608 20.5058C15.8436 20.5423 14.9444 20.4116 14.0631 20.1138C13.0052 19.7564 12.065 19.2106 11.2425 18.4764C10.4454 17.7328 9.85784 16.8534 9.47979 15.8382C8.88436 14.2392 8.75619 12.7696 9.09528 11.4295C9.45976 10.08 10.1265 8.92135 11.0956 7.95359C12.09 6.97637 13.2471 6.24204 14.5669 5.75057C15.1507 5.53319 15.7914 5.3524 16.4891 5.20819C16.6849 5.16772 16.8802 5.132 17.0749 5.10102C17.9146 4.96743 18.6524 5.5956 18.7704 6.43765C18.9001 7.36393 18.2373 8.20955 17.3244 8.41297C17.3145 8.41516 17.3047 8.41736 17.2948 8.41957C16.7081 8.55136 16.1863 8.70231 15.7294 8.87243C14.8157 9.21268 14.065 9.6801 13.4772 10.2747C12.8894 10.8693 12.5011 11.5341 12.3124 12.269C12.1142 12.9787 12.1569 13.7142 12.4404 14.4756C12.6956 15.1609 13.1175 15.7118 13.7062 16.1284C14.3108 16.5102 14.9932 16.7908 15.7536 16.97C16.5045 17.1239 17.235 17.1842 17.9452 17.151C18.4868 17.1057 19.0181 17.8216 18.7236 18.2784L17.6157 19.9968Z" fill="url(#paint0_linear_88648_1169)"/>
<mask id="path-2-inside-1_88648_1169" fill="white">
<path d="M35.2125 30.5361C36.271 30.8396 36.897 31.9536 36.4295 32.9505C35.4935 34.9463 34.0414 36.6711 32.2081 37.937C29.8246 39.5828 26.9442 40.3512 24.0577 40.1114C21.1712 39.8715 18.4572 38.6382 16.378 36.6216C14.2989 34.605 12.9833 31.9299 12.6554 29.0521C12.3275 26.1742 13.0076 23.2717 14.5798 20.8391C16.152 18.4065 18.5191 16.5943 21.2777 15.7113C24.0363 14.8282 27.0157 14.929 29.7083 15.9965C31.7794 16.8175 33.5823 18.1714 34.9432 19.9056C35.623 20.7718 35.2636 21.998 34.3005 22.5318C33.3375 23.0656 32.1385 22.6961 31.3962 21.8828C30.5286 20.9323 29.4511 20.1839 28.2388 19.7032C26.4038 18.9758 24.3733 18.9071 22.4933 19.5089C20.6133 20.1107 19.0002 21.3457 17.9287 23.0035C16.8572 24.6614 16.3937 26.6394 16.6172 28.6007C16.8406 30.5619 17.7372 32.385 19.1542 33.7594C20.5711 35.1337 22.4208 35.9742 24.3879 36.1376C26.3551 36.3011 28.3181 35.7774 29.9424 34.6558C31.0155 33.9148 31.897 32.9431 32.5286 31.8218C33.0689 30.8624 34.1541 30.2326 35.2125 30.5361Z"/>
</mask>
<path d="M35.2125 30.5361C36.271 30.8396 36.897 31.9536 36.4295 32.9505C35.4935 34.9463 34.0414 36.6711 32.2081 37.937C29.8246 39.5828 26.9442 40.3512 24.0577 40.1114C21.1712 39.8715 18.4572 38.6382 16.378 36.6216C14.2989 34.605 12.9833 31.9299 12.6554 29.0521C12.3275 26.1742 13.0076 23.2717 14.5798 20.8391C16.152 18.4065 18.5191 16.5943 21.2777 15.7113C24.0363 14.8282 27.0157 14.929 29.7083 15.9965C31.7794 16.8175 33.5823 18.1714 34.9432 19.9056C35.623 20.7718 35.2636 21.998 34.3005 22.5318C33.3375 23.0656 32.1385 22.6961 31.3962 21.8828C30.5286 20.9323 29.4511 20.1839 28.2388 19.7032C26.4038 18.9758 24.3733 18.9071 22.4933 19.5089C20.6133 20.1107 19.0002 21.3457 17.9287 23.0035C16.8572 24.6614 16.3937 26.6394 16.6172 28.6007C16.8406 30.5619 17.7372 32.385 19.1542 33.7594C20.5711 35.1337 22.4208 35.9742 24.3879 36.1376C26.3551 36.3011 28.3181 35.7774 29.9424 34.6558C31.0155 33.9148 31.897 32.9431 32.5286 31.8218C33.0689 30.8624 34.1541 30.2326 35.2125 30.5361Z" stroke="url(#paint1_linear_88648_1169)" stroke-width="4.06239" mask="url(#path-2-inside-1_88648_1169)"/>
<circle cx="35.4302" cy="26.4788" r="1.36644" transform="rotate(16 35.4302 26.4788)" stroke="url(#paint2_linear_88648_1169)" stroke-width="0.812478"/>
<circle cx="23.4849" cy="6.2268" r="1.36644" transform="rotate(16 23.4849 6.2268)" stroke="url(#paint3_linear_88648_1169)" stroke-width="0.812478"/>
<defs>
<linearGradient id="paint0_linear_88648_1169" x1="7.83259" y1="1.52166" x2="56.8146" y2="19.226" gradientUnits="userSpaceOnUse">
<stop stop-color="#A854E9"/>
<stop offset="1" stop-color="#4F91FC"/>
</linearGradient>
<linearGradient id="paint1_linear_88648_1169" x1="21.5259" y1="5.0228" x2="77.9402" y2="91.4808" gradientUnits="userSpaceOnUse">
<stop stop-color="#A854E9"/>
<stop offset="1" stop-color="#4F91FC"/>
</linearGradient>
<linearGradient id="paint2_linear_88648_1169" x1="34.062" y1="23.5404" x2="45.1148" y2="33.1062" gradientUnits="userSpaceOnUse">
<stop stop-color="#A854E9"/>
<stop offset="1" stop-color="#4F91FC"/>
</linearGradient>
<linearGradient id="paint3_linear_88648_1169" x1="22.1167" y1="3.2884" x2="33.1695" y2="12.8543" gradientUnits="userSpaceOnUse">
<stop stop-color="#A854E9"/>
<stop offset="1" stop-color="#4F91FC"/>
</linearGradient>
</defs>
</svg>
