<svg width="124" height="125" viewBox="0 0 124 125" fill="none" xmlns="http://www.w3.org/2000/svg">
<g filter="url(#filter0_d_88648_1159)">
<circle cx="62" cy="62.3691" r="44" fill="#FDFCFC"/>
</g>
<path d="M56.0026 59.4781C55.7085 59.9342 55.2251 60.2423 54.6828 60.2638C53.2668 60.3202 51.8785 60.1185 50.518 59.6588C48.8847 59.1069 47.4331 58.2642 46.1633 57.1308C44.9327 55.9828 44.0256 54.6251 43.4419 53.0577C42.5227 50.5891 42.3248 48.3203 42.8483 46.2514C43.411 44.1679 44.4404 42.3791 45.9365 40.885C47.4717 39.3764 49.2582 38.2426 51.2958 37.4839C52.197 37.1483 53.1862 36.8692 54.2634 36.6465C54.5656 36.5841 54.8671 36.5289 55.1677 36.4811C56.4641 36.2748 57.6032 37.2446 57.7853 38.5446C57.9856 39.9747 56.9623 41.2802 55.5528 41.5943C55.5377 41.5976 55.5225 41.601 55.5073 41.6044C54.6014 41.8079 53.7958 42.041 53.0905 42.3036C51.6799 42.8289 50.5208 43.5505 49.6133 44.4685C48.7058 45.3864 48.1064 46.4128 47.8151 47.5475C47.5091 48.643 47.575 49.7786 48.0128 50.9541C48.4067 52.0121 49.0581 52.8627 49.9669 53.5059C50.9003 54.0953 51.9539 54.5284 53.1278 54.8051C54.2871 55.0427 55.4149 55.1358 56.5113 55.0845C57.3475 55.0146 58.1677 56.1199 57.713 56.8251L56.0026 59.4781Z" fill="url(#paint0_linear_88648_1159)"/>
<mask id="path-3-inside-1_88648_1159" fill="white">
<path d="M83.1698 75.7488C84.8039 76.2174 85.7704 77.9371 85.0486 79.4762C83.6036 82.5575 81.3618 85.2203 78.5314 87.1747C74.8516 89.7156 70.4047 90.9019 65.9484 90.5316C61.492 90.1613 57.3019 88.2573 54.092 85.144C50.8821 82.0306 48.851 77.9006 48.3447 73.4576C47.8385 69.0147 48.8885 64.5336 51.3158 60.778C53.7431 57.0224 57.3975 54.2246 61.6564 52.8613C65.9152 51.498 70.515 51.6536 74.672 53.3016C77.8695 54.5692 80.6529 56.6594 82.754 59.3367C83.8035 60.674 83.2486 62.5671 81.7618 63.3913C80.275 64.2154 78.4239 63.6449 77.2779 62.3893C75.9384 60.9219 74.275 59.7664 72.4033 59.0244C69.5703 57.9013 66.4355 57.7952 63.5331 58.7243C60.6307 59.6534 58.1402 61.5601 56.486 64.1195C54.8318 66.679 54.1162 69.7329 54.4612 72.7608C54.8062 75.7887 56.1904 78.6033 58.378 80.725C60.5655 82.8468 63.4211 84.1444 66.4581 84.3967C69.4952 84.6491 72.5257 83.8406 75.0335 82.109C76.6903 80.965 78.0511 79.4648 79.0261 77.7337C79.8604 76.2526 81.5357 75.2802 83.1698 75.7488Z"/>
</mask>
<path d="M83.1698 75.7488C84.8039 76.2174 85.7704 77.9371 85.0486 79.4762C83.6036 82.5575 81.3618 85.2203 78.5314 87.1747C74.8516 89.7156 70.4047 90.9019 65.9484 90.5316C61.492 90.1613 57.3019 88.2573 54.092 85.144C50.8821 82.0306 48.851 77.9006 48.3447 73.4576C47.8385 69.0147 48.8885 64.5336 51.3158 60.778C53.7431 57.0224 57.3975 54.2246 61.6564 52.8613C65.9152 51.498 70.515 51.6536 74.672 53.3016C77.8695 54.5692 80.6529 56.6594 82.754 59.3367C83.8035 60.674 83.2486 62.5671 81.7618 63.3913C80.275 64.2154 78.4239 63.6449 77.2779 62.3893C75.9384 60.9219 74.275 59.7664 72.4033 59.0244C69.5703 57.9013 66.4355 57.7952 63.5331 58.7243C60.6307 59.6534 58.1402 61.5601 56.486 64.1195C54.8318 66.679 54.1162 69.7329 54.4612 72.7608C54.8062 75.7887 56.1904 78.6033 58.378 80.725C60.5655 82.8468 63.4211 84.1444 66.4581 84.3967C69.4952 84.6491 72.5257 83.8406 75.0335 82.109C76.6903 80.965 78.0511 79.4648 79.0261 77.7337C79.8604 76.2526 81.5357 75.2802 83.1698 75.7488Z" stroke="url(#paint1_linear_88648_1159)" stroke-width="6.27176" mask="url(#path-3-inside-1_88648_1159)"/>
<circle cx="83.5053" cy="69.4847" r="2.10959" transform="rotate(16 83.5053 69.4847)" stroke="url(#paint2_linear_88648_1159)" stroke-width="1.25435"/>
<circle cx="65.0639" cy="38.2191" r="2.10959" transform="rotate(16 65.0639 38.2191)" stroke="url(#paint3_linear_88648_1159)" stroke-width="1.25435"/>
<defs>
<filter id="filter0_d_88648_1159" x="0.309942" y="0.679083" width="123.38" height="123.38" filterUnits="userSpaceOnUse" color-interpolation-filters="sRGB">
<feFlood flood-opacity="0" result="BackgroundImageFix"/>
<feColorMatrix in="SourceAlpha" type="matrix" values="0 0 0 0 0 0 0 0 0 0 0 0 0 0 0 0 0 0 127 0" result="hardAlpha"/>
<feOffset/>
<feGaussianBlur stdDeviation="8.84503"/>
<feComposite in2="hardAlpha" operator="out"/>
<feColorMatrix type="matrix" values="0 0 0 0 0 0 0 0 0 0 0 0 0 0 0 0 0 0 0.16 0"/>
<feBlend mode="normal" in2="BackgroundImageFix" result="effect1_dropShadow_88648_1159"/>
<feBlend mode="normal" in="SourceGraphic" in2="effect1_dropShadow_88648_1159" result="shape"/>
</filter>
<linearGradient id="paint0_linear_88648_1159" x1="40.8989" y1="30.955" x2="116.52" y2="58.2881" gradientUnits="userSpaceOnUse">
<stop stop-color="#A854E9"/>
<stop offset="1" stop-color="#4F91FC"/>
</linearGradient>
<linearGradient id="paint1_linear_88648_1159" x1="62.0396" y1="36.3598" x2="149.135" y2="169.839" gradientUnits="userSpaceOnUse">
<stop stop-color="#A854E9"/>
<stop offset="1" stop-color="#4F91FC"/>
</linearGradient>
<linearGradient id="paint2_linear_88648_1159" x1="81.393" y1="64.9482" x2="98.4569" y2="79.7166" gradientUnits="userSpaceOnUse">
<stop stop-color="#A854E9"/>
<stop offset="1" stop-color="#4F91FC"/>
</linearGradient>
<linearGradient id="paint3_linear_88648_1159" x1="62.9516" y1="33.6826" x2="80.0154" y2="48.451" gradientUnits="userSpaceOnUse">
<stop stop-color="#A854E9"/>
<stop offset="1" stop-color="#4F91FC"/>
</linearGradient>
</defs>
</svg>
