<svg width="30" height="30" viewBox="0 0 30 30" fill="none" xmlns="http://www.w3.org/2000/svg">
<path d="M12.4521 13.7694C12.3221 13.9711 12.1083 14.1073 11.8685 14.1169C11.2423 14.1418 10.6284 14.0526 10.0268 13.8493C9.30453 13.6052 8.66264 13.2326 8.10112 12.7314C7.55692 12.2237 7.15578 11.6234 6.89768 10.9302C6.49117 9.83858 6.40367 8.8353 6.63517 7.92041C6.884 6.99906 7.33921 6.20803 8.00079 5.54733C8.6797 4.88018 9.46968 4.37884 10.3707 4.04331C10.7693 3.8949 11.2067 3.77147 11.6831 3.67301C11.8167 3.64539 11.95 3.621 12.083 3.59985C12.6562 3.50865 13.1599 3.93751 13.2405 4.51238C13.3291 5.14476 12.8765 5.72208 12.2533 5.86096C12.2465 5.86245 12.2398 5.86396 12.2331 5.86547C11.8325 5.95544 11.4763 6.0585 11.1644 6.17464C10.5406 6.40693 10.028 6.72604 9.62674 7.13198C9.22544 7.53791 8.96037 7.99177 8.83153 8.49355C8.69624 8.97801 8.72538 9.48015 8.91896 9.99999C9.09317 10.4678 9.38122 10.844 9.78309 11.1284C10.1958 11.3891 10.6618 11.5806 11.1809 11.703C11.6935 11.808 12.1923 11.8492 12.6771 11.8265C13.0469 11.7956 13.4096 12.2844 13.2085 12.5962L12.4521 13.7694Z" fill="url(#paint0_linear_88648_1095)"/>
<mask id="path-2-inside-1_88648_1095" fill="white">
<path d="M24.4667 20.9645C25.1893 21.1717 25.6167 21.9322 25.2975 22.6128C24.6585 23.9754 23.6671 25.1529 22.4155 26.0171C20.7883 27.1407 18.8218 27.6653 16.8511 27.5016C14.8805 27.3378 13.0276 26.4959 11.6081 25.1191C10.1887 23.7424 9.29048 21.916 9.06663 19.9513C8.84277 17.9865 9.30709 16.005 10.3805 14.3442C11.4538 12.6834 13.0699 11.4462 14.9532 10.8433C16.8365 10.2405 18.8706 10.3093 20.7089 11.038C22.1228 11.5986 23.3537 12.5229 24.2828 13.7068C24.7469 14.2982 24.5015 15.1354 23.844 15.4998C23.1866 15.8643 22.368 15.612 21.8612 15.0568C21.2689 14.4078 20.5333 13.8968 19.7056 13.5687C18.4528 13.0721 17.0666 13.0252 15.7831 13.436C14.4996 13.8469 13.3983 14.69 12.6668 15.8219C11.9353 16.9537 11.6188 18.3041 11.7714 19.6431C11.924 20.9821 12.5361 22.2267 13.5034 23.165C14.4708 24.1033 15.7336 24.6771 17.0766 24.7887C18.4196 24.9003 19.7597 24.5427 20.8687 23.777C21.6013 23.2711 22.2031 22.6077 22.6343 21.8422C23.0032 21.1872 23.744 20.7573 24.4667 20.9645Z"/>
</mask>
<path d="M24.4667 20.9645C25.1893 21.1717 25.6167 21.9322 25.2975 22.6128C24.6585 23.9754 23.6671 25.1529 22.4155 26.0171C20.7883 27.1407 18.8218 27.6653 16.8511 27.5016C14.8805 27.3378 13.0276 26.4959 11.6081 25.1191C10.1887 23.7424 9.29048 21.916 9.06663 19.9513C8.84277 17.9865 9.30709 16.005 10.3805 14.3442C11.4538 12.6834 13.0699 11.4462 14.9532 10.8433C16.8365 10.2405 18.8706 10.3093 20.7089 11.038C22.1228 11.5986 23.3537 12.5229 24.2828 13.7068C24.7469 14.2982 24.5015 15.1354 23.844 15.4998C23.1866 15.8643 22.368 15.612 21.8612 15.0568C21.2689 14.4078 20.5333 13.8968 19.7056 13.5687C18.4528 13.0721 17.0666 13.0252 15.7831 13.436C14.4996 13.8469 13.3983 14.69 12.6668 15.8219C11.9353 16.9537 11.6188 18.3041 11.7714 19.6431C11.924 20.9821 12.5361 22.2267 13.5034 23.165C14.4708 24.1033 15.7336 24.6771 17.0766 24.7887C18.4196 24.9003 19.7597 24.5427 20.8687 23.777C21.6013 23.2711 22.2031 22.6077 22.6343 21.8422C23.0032 21.1872 23.744 20.7573 24.4667 20.9645Z" stroke="url(#paint1_linear_88648_1095)" stroke-width="3.02557" mask="url(#path-2-inside-1_88648_1095)"/>
<circle cx="24.6125" cy="18.1942" r="0.907672" transform="rotate(16 24.6125 18.1942)" stroke="url(#paint2_linear_88648_1095)" stroke-width="0.605115"/>
<circle cx="16.4596" cy="4.36803" r="0.907672" transform="rotate(16 16.4596 4.36803)" stroke="url(#paint3_linear_88648_1095)" stroke-width="0.605115"/>
<defs>
<linearGradient id="paint0_linear_88648_1095" x1="5.77312" y1="1.15618" x2="39.2138" y2="13.2432" gradientUnits="userSpaceOnUse">
<stop stop-color="#A854E9"/>
<stop offset="1" stop-color="#4F91FC"/>
</linearGradient>
<linearGradient id="paint1_linear_88648_1095" x1="15.1226" y1="3.54619" x2="53.6374" y2="62.5722" gradientUnits="userSpaceOnUse">
<stop stop-color="#A854E9"/>
<stop offset="1" stop-color="#4F91FC"/>
</linearGradient>
<linearGradient id="paint2_linear_88648_1095" x1="23.6784" y1="16.1881" x2="31.2242" y2="22.7189" gradientUnits="userSpaceOnUse">
<stop stop-color="#A854E9"/>
<stop offset="1" stop-color="#4F91FC"/>
</linearGradient>
<linearGradient id="paint3_linear_88648_1095" x1="15.5255" y1="2.36194" x2="23.0714" y2="8.89268" gradientUnits="userSpaceOnUse">
<stop stop-color="#A854E9"/>
<stop offset="1" stop-color="#4F91FC"/>
</linearGradient>
</defs>
</svg>
